<svg width="254" height="34" viewBox="0 0 254 34" fill="none" xmlns="http://www.w3.org/2000/svg">
<g filter="url(#filter0_i_1657_18895)">
<rect y="1" width="220" height="30" rx="3" fill="white"/>
<text fill="#1C2127" xml:space="preserve" style="white-space: pre" font-family="Roboto" font-size="14" letter-spacing="0em"><tspan x="7" y="20.7852">Enter a number...</tspan></text>
<rect x="0.5" y="1.5" width="219" height="29" rx="2.5" stroke="#111418" stroke-opacity="0.15"/>
</g>
<g filter="url(#filter1_d_1657_18895)">
<path d="M222 4C222 2.34315 223.343 1 225 1H249C250.657 1 252 2.34315 252 4V14C252 15.6569 250.657 17 249 17H225C223.343 17 222 15.6569 222 14V4Z" fill="#EDEFF2"/>
<path fill-rule="evenodd" clip-rule="evenodd" d="M241.71 10.29L237.71 6.29C237.53 6.11 237.28 6 237 6C236.72 6 236.47 6.11 236.29 6.29L232.29 10.29C232.102 10.4783 231.996 10.7337 231.996 11C231.996 11.2663 232.102 11.5217 232.29 11.71C232.478 11.8983 232.734 12.0041 233 12.0041C233.266 12.0041 233.522 11.8983 233.71 11.71L237 8.41L240.29 11.7C240.47 11.89 240.72 12 241 12C241.198 11.9997 241.392 11.9408 241.556 11.8308C241.721 11.7208 241.849 11.5645 241.925 11.3816C242.001 11.1988 242.021 10.9975 241.983 10.8033C241.945 10.609 241.85 10.4304 241.71 10.29V10.29Z" fill="#5F6B7C"/>
<path d="M225 1.5H249C250.381 1.5 251.5 2.61929 251.5 4V14C251.5 15.3807 250.381 16.5 249 16.5H225C223.619 16.5 222.5 15.3807 222.5 14V4C222.5 2.61929 223.619 1.5 225 1.5Z" stroke="#111418" stroke-opacity="0.15"/>
</g>
<g filter="url(#filter2_d_1657_18895)">
<g clip-path="url(#clip0_1657_18895)">
<path d="M222 19C222 17.3431 223.343 16 225 16H249C250.657 16 252 17.3431 252 19V28C252 29.6569 250.657 31 249 31H225C223.343 31 222 29.6569 222 28V19Z" fill="#EDEFF2"/>
<path fill-rule="evenodd" clip-rule="evenodd" d="M241 20.5C240.72 20.5 240.47 20.61 240.29 20.79L237 24.09L233.71 20.79C233.617 20.6968 233.506 20.6228 233.384 20.5723C233.263 20.5219 233.132 20.4959 233 20.4959C232.734 20.4959 232.478 20.6017 232.29 20.79C232.197 20.8832 232.123 20.9939 232.073 21.1158C232.022 21.2376 231.996 21.3681 231.996 21.5C231.996 21.7663 232.102 22.0217 232.29 22.21L236.29 26.21C236.47 26.39 236.72 26.5 237 26.5C237.28 26.5 237.53 26.39 237.71 26.21L241.71 22.21C241.85 22.0696 241.945 21.891 241.983 21.6967C242.021 21.5025 242.001 21.3012 241.925 21.1184C241.849 20.9355 241.721 20.7792 241.556 20.6692C241.392 20.5592 241.198 20.5003 241 20.5V20.5Z" fill="#5F6B7C"/>
</g>
<path d="M225 16.5H249C250.381 16.5 251.5 17.6193 251.5 19V28C251.5 29.3807 250.381 30.5 249 30.5H225C223.619 30.5 222.5 29.3807 222.5 28V19C222.5 17.6193 223.619 16.5 225 16.5Z" stroke="#111418" stroke-opacity="0.15"/>
</g>
<defs>
<filter id="filter0_i_1657_18895" x="0" y="1" width="220" height="31" filterUnits="userSpaceOnUse" color-interpolation-filters="sRGB">
<feFlood flood-opacity="0" result="BackgroundImageFix"/>
<feBlend mode="normal" in="SourceGraphic" in2="BackgroundImageFix" result="shape"/>
<feColorMatrix in="SourceAlpha" type="matrix" values="0 0 0 0 0 0 0 0 0 0 0 0 0 0 0 0 0 0 127 0" result="hardAlpha"/>
<feOffset dy="1"/>
<feGaussianBlur stdDeviation="1"/>
<feComposite in2="hardAlpha" operator="arithmetic" k2="-1" k3="1"/>
<feColorMatrix type="matrix" values="0 0 0 0 0.0666667 0 0 0 0 0.0784314 0 0 0 0 0.0941176 0 0 0 0.5 0"/>
<feBlend mode="normal" in2="shape" result="effect1_innerShadow_1657_18895"/>
</filter>
<filter id="filter1_d_1657_18895" x="220" y="0" width="34" height="20" filterUnits="userSpaceOnUse" color-interpolation-filters="sRGB">
<feFlood flood-opacity="0" result="BackgroundImageFix"/>
<feColorMatrix in="SourceAlpha" type="matrix" values="0 0 0 0 0 0 0 0 0 0 0 0 0 0 0 0 0 0 127 0" result="hardAlpha"/>
<feOffset dy="1"/>
<feGaussianBlur stdDeviation="1"/>
<feComposite in2="hardAlpha" operator="out"/>
<feColorMatrix type="matrix" values="0 0 0 0 0 0 0 0 0 0 0 0 0 0 0 0 0 0 0.1 0"/>
<feBlend mode="normal" in2="BackgroundImageFix" result="effect1_dropShadow_1657_18895"/>
<feBlend mode="normal" in="SourceGraphic" in2="effect1_dropShadow_1657_18895" result="shape"/>
</filter>
<filter id="filter2_d_1657_18895" x="220" y="15" width="34" height="19" filterUnits="userSpaceOnUse" color-interpolation-filters="sRGB">
<feFlood flood-opacity="0" result="BackgroundImageFix"/>
<feColorMatrix in="SourceAlpha" type="matrix" values="0 0 0 0 0 0 0 0 0 0 0 0 0 0 0 0 0 0 127 0" result="hardAlpha"/>
<feOffset dy="1"/>
<feGaussianBlur stdDeviation="1"/>
<feComposite in2="hardAlpha" operator="out"/>
<feColorMatrix type="matrix" values="0 0 0 0 0 0 0 0 0 0 0 0 0 0 0 0 0 0 0.1 0"/>
<feBlend mode="normal" in2="BackgroundImageFix" result="effect1_dropShadow_1657_18895"/>
<feBlend mode="normal" in="SourceGraphic" in2="effect1_dropShadow_1657_18895" result="shape"/>
</filter>
<clipPath id="clip0_1657_18895">
<path d="M222 19C222 17.3431 223.343 16 225 16H249C250.657 16 252 17.3431 252 19V28C252 29.6569 250.657 31 249 31H225C223.343 31 222 29.6569 222 28V19Z" fill="white"/>
</clipPath>
</defs>
</svg>
