<svg width="252" height="30" viewBox="0 0 252 30" fill="none" xmlns="http://www.w3.org/2000/svg">
<g filter="url(#filter0_i_1657_18896)">
<rect width="252" height="30" rx="3" fill="white"/>
<path fill-rule="evenodd" clip-rule="evenodd" d="M14.99 6.98999C13.8737 6.98995 12.7698 7.22357 11.7492 7.67585C10.7287 8.12812 9.8141 8.78901 9.06434 9.61602C8.31457 10.443 7.74622 11.4178 7.39586 12.4777C7.0455 13.5376 6.92088 14.6591 7.03002 15.77C7.04002 15.86 7.06002 15.95 7.07002 16.05C7.09002 16.2 7.11002 16.36 7.14002 16.52C7.16002 16.63 7.19002 16.74 7.22002 16.86C7.25002 16.99 7.28002 17.12 7.32002 17.24C7.36002 17.36 7.40002 17.49 7.44002 17.61C7.48002 17.72 7.52002 17.82 7.56002 17.93C7.64816 18.1519 7.74831 18.3689 7.86002 18.58C7.93002 18.72 8.00002 18.85 8.08002 18.98C8.12002 19.05 8.16002 19.11 8.20002 19.18L8.47002 19.6L8.57002 19.73C9.53005 21.0378 10.8662 22.0215 12.4 22.55C12.43 22.56 12.45 22.57 12.47 22.58C12.84 22.7 13.22 22.8 13.61 22.87L13.81 22.9C14.2 22.96 14.6 23 15.01 23C15.42 23 15.82 22.96 16.21 22.9L16.41 22.87C16.8 22.8 17.18 22.71 17.55 22.58C17.58 22.57 17.6 22.56 17.62 22.55C19.152 22.0179 20.4871 21.0349 21.45 19.73C21.48 19.69 21.51 19.65 21.54 19.6C21.64 19.46 21.73 19.32 21.82 19.18C21.86 19.11 21.9 19.05 21.94 18.98C22.02 18.85 22.09 18.71 22.16 18.57C22.2 18.49 22.24 18.4 22.28 18.31C22.34 18.18 22.39 18.05 22.45 17.92C22.49 17.82 22.53 17.71 22.57 17.6C22.61 17.48 22.65 17.36 22.69 17.23C22.73 17.1 22.76 16.98 22.79 16.85C22.82 16.74 22.85 16.63 22.87 16.51C22.9 16.35 22.92 16.2 22.94 16.04C22.95 15.95 22.97 15.86 22.98 15.76C23 15.5 23.02 15.25 23.02 14.98C22.99 10.57 19.41 6.98999 14.99 6.98999V6.98999ZM14.99 21.39C13.01 21.39 11.24 20.49 10.07 19.08C10.74 18.72 11.56 18.42 12.21 18.13C13.37 17.61 13.25 17.29 13.29 16.86C13.3 16.8 13.3 16.75 13.3 16.69C12.89 16.33 12.56 15.83 12.34 15.25V15.24C12.34 15.23 12.33 15.22 12.33 15.22C12.28 15.09 12.24 14.96 12.21 14.83C11.93 14.78 11.77 14.48 11.71 14.2C11.65 14.09 11.53 13.82 11.56 13.51C11.6 13.1 11.76 12.92 11.94 12.84V12.78C11.94 12.27 11.99 11.54 12.08 11.06C12.1 10.93 12.13 10.8 12.17 10.67C12.34 10.08 12.7 9.54999 13.18 9.17999C13.67 8.79999 14.37 8.58999 15 8.58999C15.62 8.58999 16.32 8.78999 16.82 9.17999C17.3 9.54999 17.66 10.08 17.83 10.67C17.87 10.8 17.9 10.93 17.92 11.07C18.01 11.55 18.06 12.28 18.06 12.79V12.86C18.24 12.94 18.39 13.12 18.43 13.52C18.46 13.83 18.33 14.1 18.27 14.21C18.21 14.48 18.06 14.78 17.79 14.83C17.76 14.96 17.72 15.09 17.67 15.21C17.67 15.22 17.66 15.25 17.66 15.25C17.45 15.82 17.12 16.31 16.72 16.67C16.72 16.73 16.73 16.8 16.73 16.86C16.77 17.29 16.61 17.61 17.78 18.13C18.43 18.42 19.25 18.73 19.92 19.08C19.318 19.803 18.5642 20.3847 17.7122 20.7839C16.8603 21.1831 15.9309 21.39 14.99 21.39V21.39Z" fill="#5F6B7C"/>
<text fill="#1C2127" xml:space="preserve" style="white-space: pre" font-family="Roboto" font-size="14" letter-spacing="0em"><tspan x="31" y="19.7852">Enter your username...</tspan></text>
<rect x="0.5" y="0.5" width="251" height="29" rx="2.5" stroke="#111418" stroke-opacity="0.15"/>
</g>
<defs>
<filter id="filter0_i_1657_18896" x="0" y="0" width="252" height="31" filterUnits="userSpaceOnUse" color-interpolation-filters="sRGB">
<feFlood flood-opacity="0" result="BackgroundImageFix"/>
<feBlend mode="normal" in="SourceGraphic" in2="BackgroundImageFix" result="shape"/>
<feColorMatrix in="SourceAlpha" type="matrix" values="0 0 0 0 0 0 0 0 0 0 0 0 0 0 0 0 0 0 127 0" result="hardAlpha"/>
<feOffset dy="1"/>
<feGaussianBlur stdDeviation="1"/>
<feComposite in2="hardAlpha" operator="arithmetic" k2="-1" k3="1"/>
<feColorMatrix type="matrix" values="0 0 0 0 0.0666667 0 0 0 0 0.0784314 0 0 0 0 0.0941176 0 0 0 0.5 0"/>
<feBlend mode="normal" in2="shape" result="effect1_innerShadow_1657_18896"/>
</filter>
</defs>
</svg>
