<svg width="252" height="30" viewBox="0 0 252 30" fill="none" xmlns="http://www.w3.org/2000/svg">
<g clip-path="url(#clip0_1656_17315)">
<path fill-rule="evenodd" clip-rule="evenodd" d="M-0.0100098 21C-0.0100098 21.55 0.43999 22 0.98999 22H14.99C15.54 22 15.99 21.55 15.99 21V14H-0.0100098V21V21ZM14.99 11H7.40999L5.69999 9.3C5.60861 9.20389 5.4984 9.12765 5.37624 9.07603C5.25408 9.02442 5.1226 8.99853 4.98999 9H0.98999C0.43999 9 -0.0100098 9.45 -0.0100098 10V13H15.99V12C15.99 11.45 15.54 11 14.99 11Z" fill="#5F6B7C"/>
<text fill="#5F6B7C" xml:space="preserve" style="white-space: pre" font-family="Roboto" font-size="16" letter-spacing="0.01em"><tspan x="21" y="20.4688">Path</tspan></text>
</g>
<path fill-rule="evenodd" clip-rule="evenodd" d="M67.7099 14.29L63.7099 10.29C63.5216 10.1017 63.2662 9.99591 62.9999 9.99591C62.7336 9.99591 62.4782 10.1017 62.2899 10.29C62.1016 10.4783 61.9958 10.7337 61.9958 11C61.9958 11.2663 62.1016 11.5217 62.2899 11.71L65.5899 15L62.2999 18.29C62.1099 18.47 61.9999 18.72 61.9999 19C62.0002 19.198 62.0591 19.3915 62.1691 19.556C62.2792 19.7206 62.4355 19.849 62.6183 19.9249C62.8012 20.0008 63.0024 20.0209 63.1967 19.9827C63.3909 19.9444 63.5695 19.8496 63.7099 19.71L67.7099 15.71C67.8899 15.53 67.9999 15.28 67.9999 15C67.9999 14.72 67.8899 14.47 67.7099 14.29Z" fill="#5F6B7C"/>
<g clip-path="url(#clip1_1656_17315)">
<path fill-rule="evenodd" clip-rule="evenodd" d="M74.99 21C74.99 21.55 75.44 22 75.99 22H89.99C90.54 22 90.99 21.55 90.99 21V14H74.99V21V21ZM89.99 11H82.41L80.7 9.3C80.6086 9.20389 80.4984 9.12765 80.3762 9.07603C80.2541 9.02442 80.1226 8.99853 79.99 9H75.99C75.44 9 74.99 9.45 74.99 10V13H90.99V12C90.99 11.45 90.54 11 89.99 11Z" fill="#5F6B7C"/>
<text fill="#5F6B7C" xml:space="preserve" style="white-space: pre" font-family="Roboto" font-size="16" letter-spacing="0.01em"><tspan x="96" y="20.4688">Path</tspan></text>
</g>
<path fill-rule="evenodd" clip-rule="evenodd" d="M142.71 14.29L138.71 10.29C138.522 10.1017 138.266 9.99591 138 9.99591C137.734 9.99591 137.478 10.1017 137.29 10.29C137.102 10.4783 136.996 10.7337 136.996 11C136.996 11.2663 137.102 11.5217 137.29 11.71L140.59 15L137.3 18.29C137.11 18.47 137 18.72 137 19C137 19.198 137.059 19.3915 137.169 19.556C137.279 19.7206 137.435 19.849 137.618 19.9249C137.801 20.0008 138.002 20.0209 138.197 19.9827C138.391 19.9444 138.57 19.8496 138.71 19.71L142.71 15.71C142.89 15.53 143 15.28 143 15C143 14.72 142.89 14.47 142.71 14.29Z" fill="#5F6B7C"/>
<g clip-path="url(#clip2_1656_17315)">
<path fill-rule="evenodd" clip-rule="evenodd" d="M149.99 21C149.99 21.55 150.44 22 150.99 22H164.99C165.54 22 165.99 21.55 165.99 21V14H149.99V21V21ZM164.99 11H157.41L155.7 9.3C155.609 9.20389 155.498 9.12765 155.376 9.07603C155.254 9.02442 155.123 8.99853 154.99 9H150.99C150.44 9 149.99 9.45 149.99 10V13H165.99V12C165.99 11.45 165.54 11 164.99 11Z" fill="#5F6B7C"/>
<text fill="#5F6B7C" xml:space="preserve" style="white-space: pre" font-family="Roboto" font-size="16" letter-spacing="0.01em"><tspan x="171" y="20.4688">Path</tspan></text>
</g>
<path fill-rule="evenodd" clip-rule="evenodd" d="M217.71 14.29L213.71 10.29C213.522 10.1017 213.266 9.99591 213 9.99591C212.734 9.99591 212.478 10.1017 212.29 10.29C212.102 10.4783 211.996 10.7337 211.996 11C211.996 11.2663 212.102 11.5217 212.29 11.71L215.59 15L212.3 18.29C212.11 18.47 212 18.72 212 19C212 19.198 212.059 19.3915 212.169 19.556C212.279 19.7206 212.435 19.849 212.618 19.9249C212.801 20.0008 213.002 20.0209 213.197 19.9827C213.391 19.9444 213.57 19.8496 213.71 19.71L217.71 15.71C217.89 15.53 218 15.28 218 15C218 14.72 217.89 14.47 217.71 14.29Z" fill="#5F6B7C"/>
<rect x="228" y="6" width="24" height="18" rx="3" fill="#E5E8EB"/>
<path fill-rule="evenodd" clip-rule="evenodd" d="M234 13.03C233.47 13.03 232.961 13.2407 232.586 13.6158C232.211 13.9909 232 14.4996 232 15.03C232 15.5604 232.211 16.0691 232.586 16.4442C232.961 16.8193 233.47 17.03 234 17.03C234.53 17.03 235.039 16.8193 235.414 16.4442C235.789 16.0691 236 15.5604 236 15.03C236 14.4996 235.789 13.9909 235.414 13.6158C235.039 13.2407 234.53 13.03 234 13.03V13.03ZM246 13.03C245.47 13.03 244.961 13.2407 244.586 13.6158C244.211 13.9909 244 14.4996 244 15.03C244 15.5604 244.211 16.0691 244.586 16.4442C244.961 16.8193 245.47 17.03 246 17.03C246.53 17.03 247.039 16.8193 247.414 16.4442C247.789 16.0691 248 15.5604 248 15.03C248 14.4996 247.789 13.9909 247.414 13.6158C247.039 13.2407 246.53 13.03 246 13.03ZM240 13.03C239.47 13.03 238.961 13.2407 238.586 13.6158C238.211 13.9909 238 14.4996 238 15.03C238 15.5604 238.211 16.0691 238.586 16.4442C238.961 16.8193 239.47 17.03 240 17.03C240.53 17.03 241.039 16.8193 241.414 16.4442C241.789 16.0691 242 15.5604 242 15.03C242 14.4996 241.789 13.9909 241.414 13.6158C241.039 13.2407 240.53 13.03 240 13.03Z" fill="#5F6B7C"/>
<defs>
<clipPath id="clip0_1656_17315">
<rect width="55" height="30" rx="2" fill="white"/>
</clipPath>
<clipPath id="clip1_1656_17315">
<rect x="75" width="55" height="30" rx="2" fill="white"/>
</clipPath>
<clipPath id="clip2_1656_17315">
<rect x="150" width="55" height="30" rx="2" fill="white"/>
</clipPath>
</defs>
</svg>
