<svg width="252" height="30" viewBox="0 0 252 30" fill="none" xmlns="http://www.w3.org/2000/svg">
<g clip-path="url(#clip0_1656_17314)">
<path fill-rule="evenodd" clip-rule="evenodd" d="M-0.0100098 21C-0.0100098 21.55 0.43999 22 0.98999 22H14.99C15.54 22 15.99 21.55 15.99 21V14H-0.0100098V21ZM14.99 11H7.40999L5.69999 9.3C5.60861 9.20389 5.4984 9.12765 5.37624 9.07603C5.25408 9.02442 5.1226 8.99853 4.98999 9H0.98999C0.43999 9 -0.0100098 9.45 -0.0100098 10V13H15.99V12C15.99 11.45 15.54 11 14.99 11Z" fill="#5F6B7C"/>
<text fill="#5F6B7C" xml:space="preserve" style="white-space: pre" font-family="Roboto" font-size="16" letter-spacing="0.01em"><tspan x="21" y="20.4688">Users</tspan></text>
</g>
<path fill-rule="evenodd" clip-rule="evenodd" d="M74.7099 14.29L70.7099 10.29C70.5216 10.1017 70.2662 9.99591 69.9999 9.99591C69.7336 9.99591 69.4782 10.1017 69.2899 10.29C69.1016 10.4783 68.9958 10.7337 68.9958 11C68.9958 11.2663 69.1016 11.5217 69.2899 11.71L72.5899 15L69.2999 18.29C69.1099 18.47 68.9999 18.72 68.9999 19C69.0002 19.198 69.0591 19.3915 69.1691 19.556C69.2792 19.7206 69.4355 19.849 69.6183 19.9249C69.8012 20.0008 70.0024 20.0209 70.1967 19.9827C70.3909 19.9444 70.5695 19.8496 70.7099 19.71L74.7099 15.71C74.8899 15.53 74.9999 15.28 74.9999 15C74.9999 14.72 74.8899 14.47 74.7099 14.29Z" fill="#5F6B7C"/>
<g clip-path="url(#clip1_1656_17314)">
<path fill-rule="evenodd" clip-rule="evenodd" d="M80.99 21C80.99 21.55 81.44 22 81.99 22H95.99C96.54 22 96.99 21.55 96.99 21V14H80.99V21ZM95.99 11H88.41L86.7 9.3C86.6086 9.20389 86.4984 9.12765 86.3762 9.07603C86.2541 9.02442 86.1226 8.99853 85.99 9H81.99C81.44 9 80.99 9.45 80.99 10V13H96.99V12C96.99 11.45 96.54 11 95.99 11Z" fill="#5F6B7C"/>
<text fill="#5F6B7C" xml:space="preserve" style="white-space: pre" font-family="Roboto" font-size="16" letter-spacing="0.01em"><tspan x="102" y="20.4688">Janet</tspan></text>
</g>
<path fill-rule="evenodd" clip-rule="evenodd" d="M154.71 14.29L150.71 10.29C150.522 10.1017 150.266 9.99591 150 9.99591C149.734 9.99591 149.478 10.1017 149.29 10.29C149.102 10.4783 148.996 10.7337 148.996 11C148.996 11.2663 149.102 11.5217 149.29 11.71L152.59 15L149.3 18.29C149.11 18.47 149 18.72 149 19C149 19.198 149.059 19.3915 149.169 19.556C149.279 19.7206 149.435 19.849 149.618 19.9249C149.801 20.0008 150.002 20.0209 150.197 19.9827C150.391 19.9444 150.57 19.8496 150.71 19.71L154.71 15.71C154.89 15.53 155 15.28 155 15C155 14.72 154.89 14.47 154.71 14.29Z" fill="#5F6B7C"/>
<path fill-rule="evenodd" clip-rule="evenodd" d="M170 7H164C163.45 7 163 7.45 163 8V22C163 22.55 163.45 23 164 23H174C174.55 23 175 22.55 175 22V12L170 7ZM173 21H165V9H169V13H173V21Z" fill="#5F6B7C"/>
<text fill="#1C2127" xml:space="preserve" style="white-space: pre" font-family="Roboto" font-size="16" font-weight="300" letter-spacing="0.005em"><tspan x="182" y="20.4688">image.jpg</tspan></text>
<defs>
<clipPath id="clip0_1656_17314">
<rect width="63" height="30" rx="2" fill="white"/>
</clipPath>
<clipPath id="clip1_1656_17314">
<rect x="81" width="62" height="30" rx="2" fill="white"/>
</clipPath>
</defs>
</svg>
