<svg width="270" height="229" viewBox="0 0 270 229" fill="none" xmlns="http://www.w3.org/2000/svg">
<rect x="9" width="252" height="229" fill="#F7F8F9"/>
<g filter="url(#filter0_ddd_1661_18740)">
<rect x="24" y="20.9646" width="222" height="138" rx="3" fill="white"/>
</g>
<mask id="path-3-outside-1_1661_18740" maskUnits="userSpaceOnUse" x="22" y="19" width="226" height="151" fill="black">
<rect fill="white" x="22" y="19" width="226" height="151"/>
<path fill-rule="evenodd" clip-rule="evenodd" d="M26 20C24.3431 20 23 21.3431 23 23V157C23 158.657 24.3431 160 26 160H40.0592C40.6217 160 41.1582 160.237 41.5371 160.653L48.5205 168.312C49.3138 169.182 50.6832 169.182 51.4764 168.312L58.4598 160.653C58.8388 160.237 59.3753 160 59.9378 160H244C245.657 160 247 158.657 247 157V23C247 21.3431 245.657 20 244 20H26Z"/>
</mask>
<path fill-rule="evenodd" clip-rule="evenodd" d="M26 20C24.3431 20 23 21.3431 23 23V157C23 158.657 24.3431 160 26 160H40.0592C40.6217 160 41.1582 160.237 41.5371 160.653L48.5205 168.312C49.3138 169.182 50.6832 169.182 51.4764 168.312L58.4598 160.653C58.8388 160.237 59.3753 160 59.9378 160H244C245.657 160 247 158.657 247 157V23C247 21.3431 245.657 20 244 20H26Z" fill="white"/>
<path d="M58.4598 160.653L59.1988 161.326L58.4598 160.653ZM48.5205 168.312L49.2595 167.638L48.5205 168.312ZM51.4764 168.312L50.7375 167.638L51.4764 168.312ZM41.5371 160.653L40.7982 161.326L41.5371 160.653ZM24 23C24 21.8954 24.8954 21 26 21V19C23.7909 19 22 20.7909 22 23H24ZM24 157V23H22V157H24ZM26 159C24.8954 159 24 158.105 24 157H22C22 159.209 23.7909 161 26 161V159ZM40.0592 159H26V161H40.0592V159ZM49.2595 167.638L42.2761 159.979L40.7982 161.326L47.7816 168.986L49.2595 167.638ZM57.7209 159.979L50.7375 167.638L52.2154 168.986L59.1988 161.326L57.7209 159.979ZM244 159H59.9378V161H244V159ZM246 157C246 158.105 245.105 159 244 159V161C246.209 161 248 159.209 248 157H246ZM246 23V157H248V23H246ZM244 21C245.105 21 246 21.8954 246 23H248C248 20.7909 246.209 19 244 19V21ZM26 21H244V19H26V21ZM59.1988 161.326C59.3883 161.118 59.6565 161 59.9378 161V159C59.094 159 58.2893 159.355 57.7209 159.979L59.1988 161.326ZM47.7816 168.986C48.9714 170.291 51.0255 170.291 52.2154 168.986L50.7375 167.638C50.3408 168.073 49.6561 168.073 49.2595 167.638L47.7816 168.986ZM40.0592 161C40.3404 161 40.6087 161.118 40.7982 161.326L42.2761 159.979C41.7077 159.355 40.9029 159 40.0592 159V161Z" fill="#111418" fill-opacity="0.1" mask="url(#path-3-outside-1_1661_18740)"/>
<path fill-rule="evenodd" clip-rule="evenodd" d="M232.41 36L234.7 33.71C234.89 33.53 235 33.28 235 33C235 32.802 234.941 32.6085 234.831 32.444C234.721 32.2794 234.565 32.151 234.382 32.0751C234.199 31.9992 233.998 31.9791 233.803 32.0173C233.609 32.0556 233.431 32.1504 233.29 32.29L231 34.59L228.71 32.29C228.522 32.1017 228.266 31.9959 228 31.9959C227.734 31.9959 227.478 32.1017 227.29 32.29C227.102 32.4783 226.996 32.7337 226.996 33C226.996 33.2663 227.102 33.5217 227.29 33.71L229.59 36L227.3 38.29C227.11 38.47 227 38.72 227 39C227 39.198 227.059 39.3915 227.169 39.556C227.279 39.7206 227.436 39.849 227.619 39.9249C227.801 40.0008 228.003 40.0209 228.197 39.9827C228.391 39.9444 228.57 39.8496 228.71 39.71L231 37.41L233.29 39.7C233.47 39.89 233.72 40 234 40C234.198 39.9997 234.392 39.9408 234.556 39.8308C234.721 39.7208 234.849 39.5645 234.925 39.3816C235.001 39.1988 235.021 38.9975 234.983 38.8033C234.945 38.609 234.85 38.4304 234.71 38.29L232.41 36Z" fill="#5F6B7C"/>
<text fill="#1C2127" xml:space="preserve" style="white-space: pre" font-family="Roboto" font-size="18" font-weight="500" letter-spacing="0em"><tspan x="43" y="56.6523">Popover Title</tspan></text>
<text fill="#1C2127" xml:space="preserve" style="white-space: pre" font-family="Roboto" font-size="14" letter-spacing="0.01em"><tspan x="43" y="85.7852">Lorem ipsum dolor sit amet, </tspan><tspan x="43" y="101.785">consectetur adipiscing elit. </tspan><tspan x="43" y="117.785">In suspendisse at purus </tspan><tspan x="43" y="133.785">vitae praesent. Turpis arcu </tspan></text>
<g filter="url(#filter1_d_1661_18740)">
<rect x="23" y="179" width="78" height="30" rx="3" fill="#2D72D2"/>
<text fill="white" xml:space="preserve" style="white-space: pre" font-family="Roboto" font-size="14" letter-spacing="0em"><tspan x="33" y="198.785">Click me!</tspan></text>
<rect x="23.5" y="179.5" width="77" height="29" rx="2.5" stroke="#111418" stroke-opacity="0.15"/>
</g>
<defs>
<filter id="filter0_ddd_1661_18740" x="0" y="4.9646" width="270" height="186" filterUnits="userSpaceOnUse" color-interpolation-filters="sRGB">
<feFlood flood-opacity="0" result="BackgroundImageFix"/>
<feColorMatrix in="SourceAlpha" type="matrix" values="0 0 0 0 0 0 0 0 0 0 0 0 0 0 0 0 0 0 127 0" result="hardAlpha"/>
<feMorphology radius="1" operator="dilate" in="SourceAlpha" result="effect1_dropShadow_1661_18740"/>
<feOffset/>
<feComposite in2="hardAlpha" operator="out"/>
<feColorMatrix type="matrix" values="0 0 0 0 0.0666667 0 0 0 0 0.0784314 0 0 0 0 0.0941176 0 0 0 0.1 0"/>
<feBlend mode="normal" in2="BackgroundImageFix" result="effect1_dropShadow_1661_18740"/>
<feColorMatrix in="SourceAlpha" type="matrix" values="0 0 0 0 0 0 0 0 0 0 0 0 0 0 0 0 0 0 127 0" result="hardAlpha"/>
<feOffset dy="2"/>
<feGaussianBlur stdDeviation="2"/>
<feComposite in2="hardAlpha" operator="out"/>
<feColorMatrix type="matrix" values="0 0 0 0 0.0666667 0 0 0 0 0.0784314 0 0 0 0 0.0941176 0 0 0 0.2 0"/>
<feBlend mode="normal" in2="effect1_dropShadow_1661_18740" result="effect2_dropShadow_1661_18740"/>
<feColorMatrix in="SourceAlpha" type="matrix" values="0 0 0 0 0 0 0 0 0 0 0 0 0 0 0 0 0 0 127 0" result="hardAlpha"/>
<feOffset dy="8"/>
<feGaussianBlur stdDeviation="12"/>
<feComposite in2="hardAlpha" operator="out"/>
<feColorMatrix type="matrix" values="0 0 0 0 0.0666667 0 0 0 0 0.0784314 0 0 0 0 0.0941176 0 0 0 0.2 0"/>
<feBlend mode="normal" in2="effect2_dropShadow_1661_18740" result="effect3_dropShadow_1661_18740"/>
<feBlend mode="normal" in="SourceGraphic" in2="effect3_dropShadow_1661_18740" result="shape"/>
</filter>
<filter id="filter1_d_1661_18740" x="21" y="178" width="82" height="34" filterUnits="userSpaceOnUse" color-interpolation-filters="sRGB">
<feFlood flood-opacity="0" result="BackgroundImageFix"/>
<feColorMatrix in="SourceAlpha" type="matrix" values="0 0 0 0 0 0 0 0 0 0 0 0 0 0 0 0 0 0 127 0" result="hardAlpha"/>
<feOffset dy="1"/>
<feGaussianBlur stdDeviation="1"/>
<feComposite in2="hardAlpha" operator="out"/>
<feColorMatrix type="matrix" values="0 0 0 0 0 0 0 0 0 0 0 0 0 0 0 0 0 0 0.1 0"/>
<feBlend mode="normal" in2="BackgroundImageFix" result="effect1_dropShadow_1661_18740"/>
<feBlend mode="normal" in="SourceGraphic" in2="effect1_dropShadow_1661_18740" result="shape"/>
</filter>
</defs>
</svg>
