<svg width="124" height="34" viewBox="0 0 124 34" fill="none" xmlns="http://www.w3.org/2000/svg">
<g filter="url(#filter0_d_1711_21527)">
<rect x="2" y="1" width="120" height="30" rx="3" fill="#CD4246"/>
<path fill-rule="evenodd" clip-rule="evenodd" d="M46.99 14.99C46.44 14.99 45.99 15.44 45.99 15.99C45.99 19.3 43.3 21.99 39.99 21.99C38.22 21.99 36.63 21.21 35.53 19.99H36.99C37.54 19.99 37.99 19.54 37.99 18.99C37.99 18.44 37.54 17.99 36.99 17.99H32.99C32.44 17.99 31.99 18.44 31.99 18.99V22.99C31.99 23.54 32.44 23.99 32.99 23.99C33.54 23.99 33.99 23.54 33.99 22.99V21.25C34.7357 22.1095 35.6573 22.7989 36.6924 23.2716C37.7275 23.7443 38.8521 23.9893 39.99 23.99C44.41 23.99 47.99 20.41 47.99 15.99C47.99 15.44 47.54 14.99 46.99 14.99ZM46.99 7.99001C46.44 7.99001 45.99 8.44001 45.99 8.99001V10.73C45.2442 9.87049 44.3227 9.18108 43.2876 8.70838C42.2525 8.23568 41.1279 7.9907 39.99 7.99001C35.57 7.99001 31.99 11.57 31.99 15.99C31.99 16.54 32.44 16.99 32.99 16.99C33.54 16.99 33.99 16.54 33.99 15.99C33.99 12.68 36.68 9.99001 39.99 9.99001C41.76 9.99001 43.35 10.77 44.45 11.99H42.99C42.44 11.99 41.99 12.44 41.99 12.99C41.99 13.54 42.44 13.99 42.99 13.99H46.99C47.54 13.99 47.99 13.54 47.99 12.99V8.99001C47.99 8.44001 47.54 7.99001 46.99 7.99001V7.99001Z" fill="white"/>
<text fill="white" xml:space="preserve" style="white-space: pre" font-family="Roboto" font-size="14" letter-spacing="0em"><tspan x="56" y="20.7852">Reset</tspan></text>
<rect x="2.5" y="1.5" width="119" height="29" rx="2.5" stroke="#111418" stroke-opacity="0.15"/>
</g>
<defs>
<filter id="filter0_d_1711_21527" x="0" y="0" width="124" height="34" filterUnits="userSpaceOnUse" color-interpolation-filters="sRGB">
<feFlood flood-opacity="0" result="BackgroundImageFix"/>
<feColorMatrix in="SourceAlpha" type="matrix" values="0 0 0 0 0 0 0 0 0 0 0 0 0 0 0 0 0 0 127 0" result="hardAlpha"/>
<feOffset dy="1"/>
<feGaussianBlur stdDeviation="1"/>
<feComposite in2="hardAlpha" operator="out"/>
<feColorMatrix type="matrix" values="0 0 0 0 0 0 0 0 0 0 0 0 0 0 0 0 0 0 0.1 0"/>
<feBlend mode="normal" in2="BackgroundImageFix" result="effect1_dropShadow_1711_21527"/>
<feBlend mode="normal" in="SourceGraphic" in2="effect1_dropShadow_1711_21527" result="shape"/>
</filter>
</defs>
</svg>
