<svg width="252" height="10" viewBox="0 0 252 10" fill="none" xmlns="http://www.w3.org/2000/svg">
<rect width="252" height="10" rx="5" fill="#C5CBD3" fill-opacity="0.5"/>
<path d="M0 5C0 2.23858 2.23858 0 5 0H121C123.761 0 126 2.23858 126 5V5C126 7.76142 123.761 10 121 10H5C2.23858 10 0 7.76142 0 5V5Z" fill="#238551"/>
<g clip-path="url(#clip0_1660_18485)">
<path d="M0 13L13.9804 13L30 -3L15.739 -3L0 13Z" fill="#4F9D74"/>
<path d="M30 13L43.9804 13L60 -3L45.739 -3L30 13Z" fill="#4F9D74"/>
<path d="M60 13L73.9804 13L90 -3L75.739 -3L60 13Z" fill="#4F9D74"/>
<path d="M90 13L103.98 13L120 -3L105.739 -3L90 13Z" fill="#4F9D74"/>
<path d="M120 13L133.98 13L150 -3L135.739 -3L120 13Z" fill="#4F9D74"/>
</g>
<defs>
<clipPath id="clip0_1660_18485">
<path d="M0 5C0 2.23858 2.23858 0 5 0H121C123.761 0 126 2.23858 126 5V5C126 7.76142 123.761 10 121 10H5C2.23858 10 0 7.76142 0 5V5Z" fill="white"/>
</clipPath>
</defs>
</svg>
