<svg width="252" height="20" viewBox="0 0 252 20" fill="none" xmlns="http://www.w3.org/2000/svg">
<rect width="88" height="20" rx="10" fill="#5F6B7C"/>
<text fill="white" xml:space="preserve" style="white-space: pre" font-family="Roboto" font-size="12" letter-spacing="0em"><tspan x="6" y="14.1016">San Francisco</tspan></text>
<rect x="96" width="69" height="20" rx="10" fill="#5F6B7C"/>
<text fill="white" xml:space="preserve" style="white-space: pre" font-family="Roboto" font-size="12" letter-spacing="0em"><tspan x="102" y="14.1016">London</tspan></text>
<g opacity="0.7">
<path fill-rule="evenodd" clip-rule="evenodd" d="M155.41 10L157.7 7.71C157.89 7.53 158 7.28 158 7C158 6.80202 157.941 6.60855 157.831 6.44396C157.721 6.27938 157.565 6.15104 157.382 6.07512C157.199 5.9992 156.998 5.9791 156.803 6.01734C156.609 6.05557 156.431 6.15045 156.29 6.29L154 8.59L151.71 6.29C151.522 6.1017 151.266 5.99591 151 5.99591C150.734 5.99591 150.478 6.1017 150.29 6.29C150.102 6.47831 149.996 6.7337 149.996 7C149.996 7.2663 150.102 7.5217 150.29 7.71L152.59 10L150.3 12.29C150.11 12.47 150 12.72 150 13C150 13.198 150.059 13.3915 150.169 13.556C150.279 13.7206 150.436 13.849 150.619 13.9249C150.801 14.0008 151.003 14.0209 151.197 13.9827C151.391 13.9444 151.57 13.8496 151.71 13.71L154 11.41L156.29 13.7C156.47 13.89 156.72 14 157 14C157.198 13.9997 157.392 13.9408 157.556 13.8308C157.721 13.7208 157.849 13.5645 157.925 13.3816C158.001 13.1988 158.021 12.9975 157.983 12.8033C157.945 12.609 157.85 12.4304 157.71 12.29L155.41 10Z" fill="white"/>
</g>
<rect x="173" width="79" height="20" rx="10" fill="#5F6B7C"/>
<text fill="white" xml:space="preserve" style="white-space: pre" font-family="Roboto" font-size="12" letter-spacing="0em"><tspan x="179" y="14.1016">New York</tspan></text>
<g opacity="0.7">
<path fill-rule="evenodd" clip-rule="evenodd" d="M242.41 10L244.7 7.71C244.89 7.53 245 7.28 245 7C245 6.80202 244.941 6.60855 244.831 6.44396C244.721 6.27938 244.565 6.15104 244.382 6.07512C244.199 5.9992 243.998 5.9791 243.803 6.01734C243.609 6.05557 243.431 6.15045 243.29 6.29L241 8.59L238.71 6.29C238.522 6.1017 238.266 5.99591 238 5.99591C237.734 5.99591 237.478 6.1017 237.29 6.29C237.102 6.47831 236.996 6.7337 236.996 7C236.996 7.2663 237.102 7.5217 237.29 7.71L239.59 10L237.3 12.29C237.11 12.47 237 12.72 237 13C237 13.198 237.059 13.3915 237.169 13.556C237.279 13.7206 237.436 13.849 237.619 13.9249C237.801 14.0008 238.003 14.0209 238.197 13.9827C238.391 13.9444 238.57 13.8496 238.71 13.71L241 11.41L243.29 13.7C243.47 13.89 243.72 14 244 14C244.198 13.9997 244.392 13.9408 244.556 13.8308C244.721 13.7208 244.849 13.5645 244.925 13.3816C245.001 13.1988 245.021 12.9975 244.983 12.8033C244.945 12.609 244.85 12.4304 244.71 12.29L242.41 10Z" fill="white"/>
</g>
</svg>
