<svg width="252" height="20" viewBox="0 0 252 20" fill="none" xmlns="http://www.w3.org/2000/svg">
<rect width="70" height="20" rx="3" fill="#5F6B7C"/>
<path fill-rule="evenodd" clip-rule="evenodd" d="M8.00019 12V17C8.00019 17.55 8.45019 18 9.00019 18H12.0002V13H16.0002V18H19.0002C19.5502 18 20.0002 17.55 20.0002 17V12L14.0002 6L8.00019 12ZM21.7102 9.29L20.0002 7.59V4C20.0002 3.45 19.5502 3 19.0002 3C18.4502 3 18.0002 3.45 18.0002 4V5.59L14.7102 2.29C14.5302 2.11 14.2802 2 14.0002 2C13.7202 2 13.4702 2.11 13.2902 2.29L6.29019 9.29C6.10188 9.4783 5.99609 9.7337 5.99609 10C5.99609 10.2663 6.10188 10.5217 6.29019 10.71C6.47849 10.8983 6.73388 11.0041 7.00019 11.0041C7.26649 11.0041 7.52188 10.8983 7.71019 10.71L14.0002 4.41L20.2902 10.7C20.4702 10.89 20.7202 11 21.0002 11C21.1982 10.9997 21.3916 10.9408 21.5562 10.8308C21.7208 10.7208 21.8491 10.5645 21.9251 10.3816C22.001 10.1988 22.0211 9.99754 21.9829 9.80328C21.9446 9.60903 21.8497 9.43043 21.7102 9.29V9.29Z" fill="white"/>
<text fill="white" xml:space="preserve" style="white-space: pre" font-family="Roboto" font-size="12" letter-spacing="0em"><tspan x="26" y="14.1016">Seattle</tspan></text>
<rect x="68" width="88" height="20" rx="3" fill="#5F6B7C"/>
<path fill-rule="evenodd" clip-rule="evenodd" d="M76.0002 12V17C76.0002 17.55 76.4502 18 77.0002 18H80.0002V13H84.0002V18H87.0002C87.5502 18 88.0002 17.55 88.0002 17V12L82.0002 6L76.0002 12ZM89.7102 9.29L88.0002 7.59V4C88.0002 3.45 87.5502 3 87.0002 3C86.4502 3 86.0002 3.45 86.0002 4V5.59L82.7102 2.29C82.5302 2.11 82.2802 2 82.0002 2C81.7202 2 81.4702 2.11 81.2902 2.29L74.2902 9.29C74.1019 9.4783 73.9961 9.7337 73.9961 10C73.9961 10.2663 74.1019 10.5217 74.2902 10.71C74.4785 10.8983 74.7339 11.0041 75.0002 11.0041C75.2665 11.0041 75.5219 10.8983 75.7102 10.71L82.0002 4.41L88.2902 10.7C88.4702 10.89 88.7202 11 89.0002 11C89.1982 10.9997 89.3916 10.9408 89.5562 10.8308C89.7208 10.7208 89.8491 10.5645 89.9251 10.3816C90.001 10.1988 90.0211 9.99754 89.9829 9.80328C89.9446 9.60903 89.8497 9.43043 89.7102 9.29V9.29Z" fill="white"/>
<text fill="white" xml:space="preserve" style="white-space: pre" font-family="Roboto" font-size="12" letter-spacing="-0.01em"><tspan x="94" y="14.1016">London</tspan></text>
<g opacity="0.7">
<path fill-rule="evenodd" clip-rule="evenodd" d="M146.41 10L148.7 7.71C148.89 7.53 149 7.28 149 7C149 6.80202 148.941 6.60855 148.831 6.44396C148.721 6.27938 148.565 6.15104 148.382 6.07512C148.199 5.9992 147.998 5.9791 147.803 6.01734C147.609 6.05557 147.431 6.15045 147.29 6.29L145 8.59L142.71 6.29C142.522 6.1017 142.266 5.99591 142 5.99591C141.734 5.99591 141.478 6.1017 141.29 6.29C141.102 6.47831 140.996 6.7337 140.996 7C140.996 7.2663 141.102 7.5217 141.29 7.71L143.59 10L141.3 12.29C141.11 12.47 141 12.72 141 13C141 13.198 141.059 13.3915 141.169 13.556C141.279 13.7206 141.436 13.849 141.619 13.9249C141.801 14.0008 142.003 14.0209 142.197 13.9827C142.391 13.9444 142.57 13.8496 142.71 13.71L145 11.41L147.29 13.7C147.47 13.89 147.72 14 148 14C148.198 13.9997 148.392 13.9408 148.556 13.8308C148.721 13.7208 148.849 13.5645 148.925 13.3816C149.001 13.1988 149.021 12.9975 148.983 12.8033C148.945 12.609 148.85 12.4304 148.71 12.29L146.41 10Z" fill="white"/>
</g>
<rect x="154" width="98" height="20" rx="3" fill="#5F6B7C"/>
<path fill-rule="evenodd" clip-rule="evenodd" d="M162 12V17C162 17.55 162.45 18 163 18H166V13H170V18H173C173.55 18 174 17.55 174 17V12L168 6L162 12ZM175.71 9.29L174 7.59V4C174 3.45 173.55 3 173 3C172.45 3 172 3.45 172 4V5.59L168.71 2.29C168.53 2.11 168.28 2 168 2C167.72 2 167.47 2.11 167.29 2.29L160.29 9.29C160.102 9.4783 159.996 9.7337 159.996 10C159.996 10.2663 160.102 10.5217 160.29 10.71C160.478 10.8983 160.734 11.0041 161 11.0041C161.266 11.0041 161.522 10.8983 161.71 10.71L168 4.41L174.29 10.7C174.47 10.89 174.72 11 175 11C175.198 10.9997 175.392 10.9408 175.556 10.8308C175.721 10.7208 175.849 10.5645 175.925 10.3816C176.001 10.1988 176.021 9.99754 175.983 9.80328C175.945 9.60903 175.85 9.43043 175.71 9.29V9.29Z" fill="white"/>
<text fill="white" xml:space="preserve" style="white-space: pre" font-family="Roboto" font-size="12" letter-spacing="-0.01em"><tspan x="180" y="14.1016">New York</tspan></text>
<g opacity="0.7">
<path fill-rule="evenodd" clip-rule="evenodd" d="M242.41 10L244.7 7.71C244.89 7.53 245 7.28 245 7C245 6.80202 244.941 6.60855 244.831 6.44396C244.721 6.27938 244.565 6.15104 244.382 6.07512C244.199 5.9992 243.998 5.9791 243.803 6.01734C243.609 6.05557 243.431 6.15045 243.29 6.29L241 8.59L238.71 6.29C238.522 6.1017 238.266 5.99591 238 5.99591C237.734 5.99591 237.478 6.1017 237.29 6.29C237.102 6.47831 236.996 6.7337 236.996 7C236.996 7.2663 237.102 7.5217 237.29 7.71L239.59 10L237.3 12.29C237.11 12.47 237 12.72 237 13C237 13.198 237.059 13.3915 237.169 13.556C237.279 13.7206 237.436 13.849 237.619 13.9249C237.801 14.0008 238.003 14.0209 238.197 13.9827C238.391 13.9444 238.57 13.8496 238.71 13.71L241 11.41L243.29 13.7C243.47 13.89 243.72 14 244 14C244.198 13.9997 244.392 13.9408 244.556 13.8308C244.721 13.7208 244.849 13.5645 244.925 13.3816C245.001 13.1988 245.021 12.9975 244.983 12.8033C244.945 12.609 244.85 12.4304 244.71 12.29L242.41 10Z" fill="white"/>
</g>
</svg>
