<svg width="252" height="82" viewBox="0 0 252 82" fill="none" xmlns="http://www.w3.org/2000/svg">
<rect width="252" height="64" fill="#F7F8F9"/>
<text fill="#1C2127" xml:space="preserve" style="white-space: pre" font-family="Roboto" font-size="12" letter-spacing="0em"><tspan x="14" y="48.1016">0% </tspan></text>
<text fill="#1C2127" xml:space="preserve" style="white-space: pre" font-family="Roboto" font-size="12" letter-spacing="0em"><tspan x="119.5" y="48.1016">50%</tspan></text>
<text fill="#1C2127" xml:space="preserve" style="white-space: pre" font-family="Roboto" font-size="12" letter-spacing="0em"><tspan x="208" y="48.1016">100%</tspan></text>
<rect x="14" y="21" width="224" height="6" rx="3" fill="#C5CBD3" fill-opacity="0.5"/>
<rect x="14" y="21" width="87" height="6" rx="3" fill="#2D72D2"/>
<g filter="url(#filter0_ddd_1657_18159)">
<rect x="85" y="16" width="16" height="16" rx="3" fill="white"/>
</g>
<g filter="url(#filter1_ddd_1657_18159)">
<rect x="85" y="37.9646" width="16" height="12" rx="3" fill="#2F343C"/>
</g>
<mask id="path-10-outside-1_1657_18159" maskUnits="userSpaceOnUse" x="83" y="36" width="20" height="16" fill="black">
<rect fill="white" x="83" y="36" width="20" height="16"/>
<path d="M84 40C84 38.3431 85.3431 37 87 37H99C100.657 37 102 38.3431 102 40V48C102 49.6569 100.657 51 99 51H87C85.3431 51 84 49.6569 84 48V40Z"/>
</mask>
<path d="M84 40C84 38.3431 85.3431 37 87 37H99C100.657 37 102 38.3431 102 40V48C102 49.6569 100.657 51 99 51H87C85.3431 51 84 49.6569 84 48V40Z" fill="#2F343C"/>
<path d="M87 38H99V36H87V38ZM101 40V48H103V40H101ZM99 50H87V52H99V50ZM85 48V40H83V48H85ZM87 50C85.8954 50 85 49.1046 85 48H83C83 50.2091 84.7909 52 87 52V50ZM101 48C101 49.1046 100.105 50 99 50V52C101.209 52 103 50.2091 103 48H101ZM99 38C100.105 38 101 38.8954 101 40H103C103 37.7909 101.209 36 99 36V38ZM87 36C84.7909 36 83 37.7909 83 40H85C85 38.8954 85.8954 38 87 38V36Z" fill="#111418" fill-opacity="0.1" mask="url(#path-10-outside-1_1657_18159)"/>
<text fill="white" xml:space="preserve" style="white-space: pre" font-family="Roboto" font-size="12" letter-spacing="0em"><tspan x="86.25" y="48.1016">00</tspan></text>
<defs>
<filter id="filter0_ddd_1657_18159" x="84" y="15" width="18" height="18" filterUnits="userSpaceOnUse" color-interpolation-filters="sRGB">
<feFlood flood-opacity="0" result="BackgroundImageFix"/>
<feColorMatrix in="SourceAlpha" type="matrix" values="0 0 0 0 0 0 0 0 0 0 0 0 0 0 0 0 0 0 127 0" result="hardAlpha"/>
<feMorphology radius="1" operator="dilate" in="SourceAlpha" result="effect1_dropShadow_1657_18159"/>
<feOffset/>
<feComposite in2="hardAlpha" operator="out"/>
<feColorMatrix type="matrix" values="0 0 0 0 0.0666667 0 0 0 0 0.0784314 0 0 0 0 0.0941176 0 0 0 0.1 0"/>
<feBlend mode="normal" in2="BackgroundImageFix" result="effect1_dropShadow_1657_18159"/>
<feColorMatrix in="SourceAlpha" type="matrix" values="0 0 0 0 0 0 0 0 0 0 0 0 0 0 0 0 0 0 127 0" result="hardAlpha"/>
<feOffset/>
<feComposite in2="hardAlpha" operator="out"/>
<feColorMatrix type="matrix" values="0 0 0 0 0.0666667 0 0 0 0 0.0784314 0 0 0 0 0.0941176 0 0 0 0.2 0"/>
<feBlend mode="normal" in2="effect1_dropShadow_1657_18159" result="effect2_dropShadow_1657_18159"/>
<feColorMatrix in="SourceAlpha" type="matrix" values="0 0 0 0 0 0 0 0 0 0 0 0 0 0 0 0 0 0 127 0" result="hardAlpha"/>
<feOffset/>
<feComposite in2="hardAlpha" operator="out"/>
<feColorMatrix type="matrix" values="0 0 0 0 0.0666667 0 0 0 0 0.0784314 0 0 0 0 0.0941176 0 0 0 0.2 0"/>
<feBlend mode="normal" in2="effect2_dropShadow_1657_18159" result="effect3_dropShadow_1657_18159"/>
<feBlend mode="normal" in="SourceGraphic" in2="effect3_dropShadow_1657_18159" result="shape"/>
</filter>
<filter id="filter1_ddd_1657_18159" x="61" y="21.9646" width="64" height="60" filterUnits="userSpaceOnUse" color-interpolation-filters="sRGB">
<feFlood flood-opacity="0" result="BackgroundImageFix"/>
<feColorMatrix in="SourceAlpha" type="matrix" values="0 0 0 0 0 0 0 0 0 0 0 0 0 0 0 0 0 0 127 0" result="hardAlpha"/>
<feMorphology radius="1" operator="dilate" in="SourceAlpha" result="effect1_dropShadow_1657_18159"/>
<feOffset/>
<feComposite in2="hardAlpha" operator="out"/>
<feColorMatrix type="matrix" values="0 0 0 0 0.0666667 0 0 0 0 0.0784314 0 0 0 0 0.0941176 0 0 0 0.1 0"/>
<feBlend mode="normal" in2="BackgroundImageFix" result="effect1_dropShadow_1657_18159"/>
<feColorMatrix in="SourceAlpha" type="matrix" values="0 0 0 0 0 0 0 0 0 0 0 0 0 0 0 0 0 0 127 0" result="hardAlpha"/>
<feOffset dy="2"/>
<feGaussianBlur stdDeviation="2"/>
<feComposite in2="hardAlpha" operator="out"/>
<feColorMatrix type="matrix" values="0 0 0 0 0.0666667 0 0 0 0 0.0784314 0 0 0 0 0.0941176 0 0 0 0.2 0"/>
<feBlend mode="normal" in2="effect1_dropShadow_1657_18159" result="effect2_dropShadow_1657_18159"/>
<feColorMatrix in="SourceAlpha" type="matrix" values="0 0 0 0 0 0 0 0 0 0 0 0 0 0 0 0 0 0 127 0" result="hardAlpha"/>
<feOffset dy="8"/>
<feGaussianBlur stdDeviation="12"/>
<feComposite in2="hardAlpha" operator="out"/>
<feColorMatrix type="matrix" values="0 0 0 0 0.0666667 0 0 0 0 0.0784314 0 0 0 0 0.0941176 0 0 0 0.2 0"/>
<feBlend mode="normal" in2="effect2_dropShadow_1657_18159" result="effect3_dropShadow_1657_18159"/>
<feBlend mode="normal" in="SourceGraphic" in2="effect3_dropShadow_1657_18159" result="shape"/>
</filter>
</defs>
</svg>
