<svg width="252" height="10" viewBox="0 0 252 10" fill="none" xmlns="http://www.w3.org/2000/svg">
<rect width="252" height="10" rx="5" fill="#C5CBD3" fill-opacity="0.5"/>
<path d="M0 5C0 2.23858 2.23858 0 5 0H195C197.761 0 200 2.23858 200 5V5C200 7.76142 197.761 10 195 10H5C2.23857 10 0 7.76142 0 5V5Z" fill="#2D72D2"/>
<g clip-path="url(#clip0_1660_18484)">
<path d="M0 13L13.9804 13L30 -3L15.739 -3L0 13Z" fill="#578EDB"/>
<path d="M30 13L43.9804 13L60 -3L45.739 -3L30 13Z" fill="#578EDB"/>
<path d="M60 13L73.9804 13L90 -3L75.739 -3L60 13Z" fill="#578EDB"/>
<path d="M90 13L103.98 13L120 -3L105.739 -3L90 13Z" fill="#578EDB"/>
<path d="M120 13L133.98 13L150 -3L135.739 -3L120 13Z" fill="#578EDB"/>
<path d="M150 13L163.98 13L180 -3L165.739 -3L150 13Z" fill="#578EDB"/>
<path d="M180 13L193.98 13L210 -3L195.739 -3L180 13Z" fill="#578EDB"/>
</g>
<defs>
<clipPath id="clip0_1660_18484">
<path d="M0 5C0 2.23858 2.23858 0 5 0H195C197.761 0 200 2.23858 200 5V5C200 7.76142 197.761 10 195 10H5C2.23857 10 0 7.76142 0 5V5Z" fill="white"/>
</clipPath>
</defs>
</svg>
