<svg width="252" height="60" viewBox="0 0 252 60" fill="none" xmlns="http://www.w3.org/2000/svg">
<g filter="url(#filter0_i_1657_18898)">
<rect width="252" height="60" rx="3" fill="white"/>
<rect x="0.5" y="0.5" width="251" height="59" rx="2.5" stroke="#111418" stroke-opacity="0.15"/>
</g>
<rect x="8" y="8" width="59" height="20" rx="3" fill="#5F6B7C"/>
<text fill="white" xml:space="preserve" style="white-space: pre" font-family="Roboto" font-size="12" letter-spacing="0em"><tspan x="14" y="22.1016">Alpha</tspan></text>
<g opacity="0.7">
<path fill-rule="evenodd" clip-rule="evenodd" d="M57.4099 18L59.6999 15.71C59.8899 15.53 59.9999 15.28 59.9999 15C59.9997 14.802 59.9408 14.6085 59.8307 14.444C59.7207 14.2794 59.5644 14.151 59.3816 14.0751C59.1987 13.9992 58.9975 13.9791 58.8032 14.0173C58.609 14.0556 58.4304 14.1504 58.2899 14.29L55.9999 16.59L53.7099 14.29C53.5216 14.1017 53.2662 13.9959 52.9999 13.9959C52.7336 13.9959 52.4782 14.1017 52.2899 14.29C52.1016 14.4783 51.9958 14.7337 51.9958 15C51.9958 15.2663 52.1016 15.5217 52.2899 15.71L54.5899 18L52.2999 20.29C52.1099 20.47 51.9999 20.72 51.9999 21C52.0002 21.198 52.0591 21.3915 52.1691 21.556C52.2792 21.7206 52.4355 21.849 52.6183 21.9249C52.8012 22.0008 53.0024 22.0209 53.1967 21.9827C53.3909 21.9444 53.5695 21.8496 53.7099 21.71L55.9999 19.41L58.2899 21.7C58.4699 21.89 58.7199 22 58.9999 22C59.1979 21.9997 59.3914 21.9408 59.556 21.8308C59.7206 21.7208 59.8489 21.5645 59.9248 21.3816C60.0007 21.1988 60.0208 20.9975 59.9826 20.8033C59.9444 20.609 59.8495 20.4304 59.7099 20.29L57.4099 18Z" fill="white"/>
</g>
<rect x="71" y="8" width="53" height="20" rx="3" fill="#5F6B7C"/>
<text fill="white" xml:space="preserve" style="white-space: pre" font-family="Roboto" font-size="12" letter-spacing="0em"><tspan x="77" y="22.1016">Beta</tspan></text>
<g opacity="0.7">
<path fill-rule="evenodd" clip-rule="evenodd" d="M114.41 18L116.7 15.71C116.89 15.53 117 15.28 117 15C117 14.802 116.941 14.6085 116.831 14.444C116.721 14.2794 116.564 14.151 116.382 14.0751C116.199 13.9992 115.997 13.9791 115.803 14.0173C115.609 14.0556 115.43 14.1504 115.29 14.29L113 16.59L110.71 14.29C110.522 14.1017 110.266 13.9959 110 13.9959C109.734 13.9959 109.478 14.1017 109.29 14.29C109.102 14.4783 108.996 14.7337 108.996 15C108.996 15.2663 109.102 15.5217 109.29 15.71L111.59 18L109.3 20.29C109.11 20.47 109 20.72 109 21C109 21.198 109.059 21.3915 109.169 21.556C109.279 21.7206 109.435 21.849 109.618 21.9249C109.801 22.0008 110.002 22.0209 110.197 21.9827C110.391 21.9444 110.57 21.8496 110.71 21.71L113 19.41L115.29 21.7C115.47 21.89 115.72 22 116 22C116.198 21.9997 116.391 21.9408 116.556 21.8308C116.721 21.7208 116.849 21.5645 116.925 21.3816C117.001 21.1988 117.021 20.9975 116.983 20.8033C116.944 20.609 116.849 20.4304 116.71 20.29L114.41 18Z" fill="white"/>
</g>
<rect x="128" y="8" width="52" height="20" rx="3" fill="#5F6B7C"/>
<text fill="white" xml:space="preserve" style="white-space: pre" font-family="Roboto" font-size="12" letter-spacing="0em"><tspan x="134" y="22.1016">Zeta</tspan></text>
<g opacity="0.7">
<path fill-rule="evenodd" clip-rule="evenodd" d="M170.41 18L172.7 15.71C172.89 15.53 173 15.28 173 15C173 14.802 172.941 14.6085 172.831 14.444C172.721 14.2794 172.565 14.151 172.382 14.0751C172.199 13.9992 171.998 13.9791 171.803 14.0173C171.609 14.0556 171.431 14.1504 171.29 14.29L169 16.59L166.71 14.29C166.522 14.1017 166.266 13.9959 166 13.9959C165.734 13.9959 165.478 14.1017 165.29 14.29C165.102 14.4783 164.996 14.7337 164.996 15C164.996 15.2663 165.102 15.5217 165.29 15.71L167.59 18L165.3 20.29C165.11 20.47 165 20.72 165 21C165 21.198 165.059 21.3915 165.169 21.556C165.279 21.7206 165.436 21.849 165.619 21.9249C165.801 22.0008 166.003 22.0209 166.197 21.9827C166.391 21.9444 166.57 21.8496 166.71 21.71L169 19.41L171.29 21.7C171.47 21.89 171.72 22 172 22C172.198 21.9997 172.392 21.9408 172.556 21.8308C172.721 21.7208 172.849 21.5645 172.925 21.3816C173.001 21.1988 173.021 20.9975 172.983 20.8033C172.945 20.609 172.85 20.4304 172.71 20.29L170.41 18Z" fill="white"/>
</g>
<rect x="184" y="8" width="46" height="20" rx="3" fill="#5F6B7C"/>
<text fill="white" xml:space="preserve" style="white-space: pre" font-family="Roboto" font-size="12" letter-spacing="0em"><tspan x="190" y="22.1016">&#x2318;D</tspan></text>
<g opacity="0.7">
<path fill-rule="evenodd" clip-rule="evenodd" d="M220.41 18L222.7 15.71C222.89 15.53 223 15.28 223 15C223 14.802 222.941 14.6085 222.831 14.444C222.721 14.2794 222.565 14.151 222.382 14.0751C222.199 13.9992 221.998 13.9791 221.803 14.0173C221.609 14.0556 221.431 14.1504 221.29 14.29L219 16.59L216.71 14.29C216.522 14.1017 216.266 13.9959 216 13.9959C215.734 13.9959 215.478 14.1017 215.29 14.29C215.102 14.4783 214.996 14.7337 214.996 15C214.996 15.2663 215.102 15.5217 215.29 15.71L217.59 18L215.3 20.29C215.11 20.47 215 20.72 215 21C215 21.198 215.059 21.3915 215.169 21.556C215.279 21.7206 215.436 21.849 215.619 21.9249C215.801 22.0008 216.003 22.0209 216.197 21.9827C216.391 21.9444 216.57 21.8496 216.71 21.71L219 19.41L221.29 21.7C221.47 21.89 221.72 22 222 22C222.198 21.9997 222.392 21.9408 222.556 21.8308C222.721 21.7208 222.849 21.5645 222.925 21.3816C223.001 21.1988 223.021 20.9975 222.983 20.8033C222.945 20.609 222.85 20.4304 222.71 20.29L220.41 18Z" fill="white"/>
</g>
<rect x="8" y="32" width="88" height="20" rx="3" fill="#5F6B7C"/>
<text fill="white" xml:space="preserve" style="white-space: pre" font-family="Roboto" font-size="12" letter-spacing="0em"><tspan x="14" y="46.1016">Enchiridion</tspan></text>
<g opacity="0.7">
<path fill-rule="evenodd" clip-rule="evenodd" d="M86.4099 42L88.6999 39.71C88.8899 39.53 88.9999 39.28 88.9999 39C88.9997 38.802 88.9408 38.6085 88.8307 38.444C88.7207 38.2794 88.5644 38.151 88.3816 38.0751C88.1987 37.9992 87.9975 37.9791 87.8032 38.0173C87.609 38.0556 87.4304 38.1504 87.2899 38.29L84.9999 40.59L82.7099 38.29C82.5216 38.1017 82.2662 37.9959 81.9999 37.9959C81.7336 37.9959 81.4782 38.1017 81.2899 38.29C81.1016 38.4783 80.9958 38.7337 80.9958 39C80.9958 39.2663 81.1016 39.5217 81.2899 39.71L83.5899 42L81.2999 44.29C81.1099 44.47 80.9999 44.72 80.9999 45C81.0002 45.198 81.0591 45.3915 81.1691 45.556C81.2792 45.7206 81.4355 45.849 81.6183 45.9249C81.8012 46.0008 82.0024 46.0209 82.1967 45.9827C82.3909 45.9444 82.5695 45.8496 82.7099 45.71L84.9999 43.41L87.2899 45.7C87.4699 45.89 87.7199 46 87.9999 46C88.1979 45.9997 88.3914 45.9408 88.556 45.8308C88.7206 45.7208 88.8489 45.5645 88.9248 45.3816C89.0007 45.1988 89.0208 44.9975 88.9826 44.8033C88.9444 44.609 88.8495 44.4304 88.7099 44.29L86.4099 42Z" fill="white"/>
</g>
<defs>
<filter id="filter0_i_1657_18898" x="0" y="0" width="252" height="61" filterUnits="userSpaceOnUse" color-interpolation-filters="sRGB">
<feFlood flood-opacity="0" result="BackgroundImageFix"/>
<feBlend mode="normal" in="SourceGraphic" in2="BackgroundImageFix" result="shape"/>
<feColorMatrix in="SourceAlpha" type="matrix" values="0 0 0 0 0 0 0 0 0 0 0 0 0 0 0 0 0 0 127 0" result="hardAlpha"/>
<feOffset dy="1"/>
<feGaussianBlur stdDeviation="1"/>
<feComposite in2="hardAlpha" operator="arithmetic" k2="-1" k3="1"/>
<feColorMatrix type="matrix" values="0 0 0 0 0.0666667 0 0 0 0 0.0784314 0 0 0 0 0.0941176 0 0 0 0.5 0"/>
<feBlend mode="normal" in2="shape" result="effect1_innerShadow_1657_18898"/>
</filter>
</defs>
</svg>
